<svg width="24" height="24" viewBox="0 0 24 24" fill="none" xmlns="http://www.w3.org/2000/svg">
<rect width="24" height="24" rx="12" fill="#F3F3EF"/>
<g clip-path="url(#clip0_584_2214)">
<path d="M14.7399 11.4818C15.1149 10.9453 15.3337 10.2917 15.3337 9.58333C15.3337 7.74219 13.8415 6.25 12.0003 6.25C10.1592 6.25 8.66699 7.74219 8.66699 9.58333C8.66699 10.2917 8.88574 10.9453 9.26074 11.4818C9.3571 11.6198 9.47168 11.776 9.59408 11.9427C9.93001 12.4036 10.3311 12.9557 10.6305 13.5C10.9014 13.9948 11.0394 14.5104 11.1071 14.9974L9.83887 15C9.78158 14.6875 9.68522 14.3828 9.53158 14.1016C9.27376 13.6328 8.95345 13.1927 8.63314 12.7526C8.49772 12.5677 8.3623 12.3828 8.2321 12.1953C7.71908 11.4557 7.41699 10.5547 7.41699 9.58333C7.41699 7.05208 9.46908 5 12.0003 5C14.5316 5 16.5837 7.05208 16.5837 9.58333C16.5837 10.5547 16.2816 11.4557 15.766 12.1953C15.6357 12.3828 15.5003 12.5677 15.3649 12.7526C15.0446 13.1901 14.7243 13.6302 14.4665 14.1016C14.3128 14.3828 14.2165 14.6875 14.1592 15H12.8936C12.9613 14.513 13.0993 13.9948 13.3701 13.5026C13.6696 12.9583 14.0706 12.4062 14.4066 11.9453C14.529 11.7786 14.641 11.6224 14.7373 11.4844L14.7399 11.4818ZM12.0003 8.33333C11.3102 8.33333 10.7503 8.89323 10.7503 9.58333C10.7503 9.8125 10.5628 10 10.3337 10C10.1045 10 9.91699 9.8125 9.91699 9.58333C9.91699 8.43229 10.8493 7.5 12.0003 7.5C12.2295 7.5 12.417 7.6875 12.417 7.91667C12.417 8.14583 12.2295 8.33333 12.0003 8.33333ZM12.0003 18.3333C10.8493 18.3333 9.91699 17.401 9.91699 16.25V15.8333H14.0837V16.25C14.0837 17.401 13.1514 18.3333 12.0003 18.3333Z" fill="#3B3B32" fill-opacity="0.5"/>
</g>
<defs>
<clipPath id="clip0_584_2214">
<rect width="10" height="13.3333" fill="white" transform="translate(7 5)"/>
</clipPath>
</defs>
</svg>
