<svg width="24" height="24" viewBox="0 0 24 24" fill="none" xmlns="http://www.w3.org/2000/svg">
<g id="inffits">
<rect width="24" height="24" rx="12" fill="#F3F3EF"/>
<path id="Vector" opacity="0.5" d="M8.83694 12.4581C8.83694 11.7632 8.83694 11.1078 8.83694 10.4281C9.49145 10.4281 10.1451 10.4281 10.817 10.4281C10.8213 10.336 10.8274 10.267 10.8278 10.1975C10.8287 9.6494 10.8491 9.09999 10.8244 8.55275C10.744 6.78596 12.0291 5.48302 13.4889 5.11516C15.1666 4.69214 16.9621 5.46391 17.7 6.9484C17.7573 7.06392 17.8047 7.18423 17.8702 7.3332C17.1606 7.55557 16.4639 7.77403 15.7525 7.99727C15.5128 7.53342 15.1206 7.30453 14.6177 7.23027C13.7386 7.10041 13.0402 7.6876 13.0402 8.56795C13.0402 9.15949 13.0411 9.75103 13.042 10.3426C13.042 10.3565 13.0467 10.3704 13.0554 10.4177C13.3777 10.4177 13.7069 10.4177 14.0361 10.4177C14.3605 10.4177 14.6845 10.4177 15.0229 10.4177C15.0229 11.0978 15.0229 11.7636 15.0229 12.4459C14.3679 12.4459 13.7199 12.4459 13.0402 12.4459C13.0402 12.5376 13.0402 12.6136 13.0402 12.6896C13.0402 13.2811 13.0207 13.8735 13.0441 14.4642C13.1084 16.0903 11.9822 17.4097 10.5234 17.8432C8.76571 18.3656 6.85733 17.5448 6.12421 15.9448C6.08295 15.8544 6.04821 15.7606 6 15.6421C6.71749 15.418 7.42108 15.1982 8.11858 14.9806C8.60024 15.6994 9.31729 15.9465 10.0361 15.649C10.5399 15.4405 10.8144 15.0583 10.8252 14.5146C10.8387 13.8375 10.8283 13.16 10.8283 12.4585C10.1642 12.4581 9.51099 12.4581 8.83694 12.4581Z" fill="#3B3B32"/>
</g>
</svg>
