<svg width="12" height="12" viewBox="0 0 12 12" fill="none" xmlns="http://www.w3.org/2000/svg">
<g clip-path="url(#clip0_855_1632)">
<path d="M0.973633 2V5H3.97363" stroke="white" stroke-width="1.5" stroke-linecap="round" stroke-linejoin="round"/>
<path d="M2.22863 7.50022C2.55283 8.42041 3.1673 9.21031 3.97946 9.75091C4.79162 10.2915 5.75747 10.5535 6.73149 10.4975C7.70551 10.4414 8.63492 10.0703 9.3797 9.4401C10.1245 8.80989 10.6443 7.95471 10.8607 7.0034C11.0772 6.05209 10.9787 5.0562 10.5799 4.16577C10.1812 3.27534 9.5039 2.53862 8.65005 2.0666C7.7962 1.59459 6.81208 1.41285 5.84597 1.54878C4.87986 1.6847 3.98409 2.13093 3.29363 2.82022L0.973633 5.00022" stroke="white" stroke-width="1.5" stroke-linecap="round" stroke-linejoin="round"/>
</g>
<defs>
<clipPath id="clip0_855_1632">
<rect width="12" height="12" fill="white"/>
</clipPath>
</defs>
</svg>
